<svg width="200" height="200" viewBox="0 0 200 200" fill="none" xmlns="http://www.w3.org/2000/svg">
  <!-- Windmill Tower -->
  <rect x="95" y="80" width="10" height="100" fill="#8D6E63" stroke="#5D4037" stroke-width="2"/>
  <!-- Windmill Base -->
  <ellipse cx="100" cy="180" rx="20" ry="8" fill="#8D6E63" stroke="#5D4037" stroke-width="1"/>
  <!-- Windmill Blades -->
  <circle cx="100" cy="80" r="35" fill="none" stroke="#A5D6A7" stroke-width="2" opacity="0.3"/>
  <!-- Blade 1 -->
  <path d="M 100 80 L 100 45 L 105 50 Z" fill="#81C784" stroke="#2E7D32" stroke-width="1.5" stroke-linejoin="round"/>
  <rect x="98" y="45" width="4" height="25" rx="2" fill="#2E7D32"/>
  <!-- Blade 2 -->
  <path d="M 100 80 L 135 80 L 130 85 Z" fill="#81C784" stroke="#2E7D32" stroke-width="1.5" stroke-linejoin="round"/>
  <rect x="110" y="78" width="25" height="4" rx="2" fill="#2E7D32"/>
  <!-- Blade 3 -->
  <path d="M 100 80 L 100 115 L 95 110 Z" fill="#81C784" stroke="#2E7D32" stroke-width="1.5" stroke-linejoin="round"/>
  <rect x="98" y="100" width="4" height="25" rx="2" fill="#2E7D32"/>
  <!-- Blade 4 -->
  <path d="M 100 80 L 65 80 L 70 75 Z" fill="#81C784" stroke="#2E7D32" stroke-width="1.5" stroke-linejoin="round"/>
  <rect x="65" y="78" width="25" height="4" rx="2" fill="#2E7D32"/>
  <!-- Center Hub -->
  <circle cx="100" cy="80" r="8" fill="#2E7D32" stroke="#1B5E20" stroke-width="1.5"/>
  <!-- Wind Lines -->
  <path d="M 30 50 Q 50 50 70 50" stroke="#B3E5FC" stroke-width="2" fill="none" stroke-linecap="round" opacity="0.6"/>
  <path d="M 30 65 Q 50 65 70 65" stroke="#B3E5FC" stroke-width="2" fill="none" stroke-linecap="round" opacity="0.6"/>
  <path d="M 130 50 Q 150 50 170 50" stroke="#B3E5FC" stroke-width="2" fill="none" stroke-linecap="round" opacity="0.6"/>
  <path d="M 130 65 Q 150 65 170 65" stroke="#B3E5FC" stroke-width="2" fill="none" stroke-linecap="round" opacity="0.6"/>
</svg>

