<svg width="200" height="200" viewBox="0 0 200 200" fill="none" xmlns="http://www.w3.org/2000/svg">
  <!-- Sun -->
  <circle cx="60" cy="60" r="25" fill="#FFE082" stroke="#FFC107" stroke-width="2"/>
  <!-- Sun Rays -->
  <line x1="60" y1="25" x2="60" y2="15" stroke="#FFC107" stroke-width="3" stroke-linecap="round"/>
  <line x1="60" y1="95" x2="60" y2="105" stroke="#FFC107" stroke-width="3" stroke-linecap="round"/>
  <line x1="25" y1="60" x2="15" y2="60" stroke="#FFC107" stroke-width="3" stroke-linecap="round"/>
  <line x1="95" y1="60" x2="105" y2="60" stroke="#FFC107" stroke-width="3" stroke-linecap="round"/>
  <line x1="40" y1="40" x2="33" y2="33" stroke="#FFC107" stroke-width="3" stroke-linecap="round"/>
  <line x1="80" y1="80" x2="87" y2="87" stroke="#FFC107" stroke-width="3" stroke-linecap="round"/>
  <line x1="80" y1="40" x2="87" y2="33" stroke="#FFC107" stroke-width="3" stroke-linecap="round"/>
  <line x1="40" y1="80" x2="33" y2="87" stroke="#FFC107" stroke-width="3" stroke-linecap="round"/>
  <!-- Solar Panel -->
  <rect x="50" y="120" width="100" height="60" rx="3" fill="#2E7D32" stroke="#1B5E20" stroke-width="2"/>
  <!-- Solar Panel Grid -->
  <line x1="70" y1="120" x2="70" y2="180" stroke="#81C784" stroke-width="1"/>
  <line x1="90" y1="120" x2="90" y2="180" stroke="#81C784" stroke-width="1"/>
  <line x1="110" y1="120" x2="110" y2="180" stroke="#81C784" stroke-width="1"/>
  <line x1="130" y1="120" x2="130" y2="180" stroke="#81C784" stroke-width="1"/>
  <line x1="50" y1="140" x2="150" y2="140" stroke="#81C784" stroke-width="1"/>
  <line x1="50" y1="160" x2="150" y2="160" stroke="#81C784" stroke-width="1"/>
  <!-- Panel Base -->
  <rect x="95" y="180" width="10" height="15" fill="#8D6E63" stroke="#5D4037" stroke-width="1"/>
</svg>

