<svg width="200" height="200" viewBox="0 0 200 200" fill="none" xmlns="http://www.w3.org/2000/svg">
  <!-- Main Water Droplet -->
  <path d="M 100 50 Q 80 60 70 80 Q 70 100 85 115 Q 100 130 100 150 Q 100 130 115 115 Q 130 100 130 80 Q 120 60 100 50" fill="#B3E5FC" stroke="#81C784" stroke-width="2"/>
  <path d="M 100 50 Q 80 60 70 80 Q 70 100 85 115 Q 100 130 100 150" fill="#E1F5FE" opacity="0.6"/>
  
  <!-- Water Droplet Highlight -->
  <ellipse cx="95" cy="75" rx="8" ry="12" fill="#FFFFFF" opacity="0.6"/>
  
  <!-- Small Droplets (Top) -->
  <circle cx="80" cy="60" r="8" fill="#B3E5FC" opacity="0.7"/>
  <circle cx="120" cy="65" r="6" fill="#B3E5FC" opacity="0.7"/>
  
  <!-- Small Droplets (Bottom) -->
  <circle cx="70" cy="140" r="7" fill="#81C784" opacity="0.5"/>
  <circle cx="130" cy="145" r="5" fill="#81C784" opacity="0.5"/>
  
  <!-- Water Ripples -->
  <ellipse cx="100" cy="160" rx="30" ry="8" fill="none" stroke="#B3E5FC" stroke-width="2" opacity="0.4"/>
  <ellipse cx="100" cy="170" rx="40" ry="10" fill="none" stroke="#B3E5FC" stroke-width="1.5" opacity="0.3"/>
  
  <!-- Leaf Decoration -->
  <path d="M 140 100 Q 150 95 155 105 Q 150 110 145 115 Q 140 105 140 100" fill="#A5D6A7" opacity="0.7"/>
  <line x1="145" y1="115" x2="148" y2="120" stroke="#81C784" stroke-width="2" stroke-linecap="round"/>
</svg>

