<svg width="200" height="200" viewBox="0 0 200 200" fill="none" xmlns="http://www.w3.org/2000/svg">
  <!-- Sapling Stem -->
  <rect x="95" y="120" width="10" height="60" rx="2" fill="#8D6E63"/>
  
  <!-- Sapling Leaves (Top) -->
  <circle cx="100" cy="100" r="25" fill="#2E7D32"/>
  <circle cx="100" cy="100" r="20" fill="#81C784" opacity="0.8"/>
  
  <!-- Sapling Leaves (Middle Left) -->
  <circle cx="80" cy="115" r="18" fill="#2E7D32"/>
  <circle cx="80" cy="115" r="14" fill="#81C784" opacity="0.8"/>
  
  <!-- Sapling Leaves (Middle Right) -->
  <circle cx="120" cy="115" r="18" fill="#2E7D32"/>
  <circle cx="120" cy="115" r="14" fill="#81C784" opacity="0.8"/>
  
  <!-- Small Leaves (Bottom) -->
  <circle cx="85" cy="135" r="12" fill="#A5D6A7"/>
  <circle cx="115" cy="135" r="12" fill="#A5D6A7"/>
  
  <!-- Pot/Container -->
  <path d="M 75 180 L 85 180 L 90 190 L 110 190 L 115 180 L 125 180 L 120 200 L 80 200 Z" fill="#D7CCC8" stroke="#8D6E63" stroke-width="2"/>
  <ellipse cx="100" cy="180" rx="25" ry="5" fill="#8D6E63" opacity="0.3"/>
  
  <!-- Soil/Dirt -->
  <ellipse cx="100" cy="190" rx="20" ry="8" fill="#8D6E63" opacity="0.5"/>
  
  <!-- Small Decorative Elements -->
  <circle cx="50" cy="160" r="5" fill="#81C784" opacity="0.6"/>
  <circle cx="150" cy="150" r="4" fill="#81C784" opacity="0.6"/>
</svg>

