<svg width="24" height="24" viewBox="0 0 24 24" fill="none" xmlns="http://www.w3.org/2000/svg">
  <!-- Gear/Cog -->
  <circle cx="12" cy="12" r="3" fill="#A5D6A7" stroke="#2E7D32" stroke-width="1.5"/>
  <circle cx="12" cy="12" r="1.5" fill="#2E7D32"/>
  <!-- Gear Teeth -->
  <rect x="11" y="4" width="2" height="3" rx="1" fill="#2E7D32"/>
  <rect x="11" y="17" width="2" height="3" rx="1" fill="#2E7D32"/>
  <rect x="4" y="11" width="3" height="2" rx="1" fill="#2E7D32"/>
  <rect x="17" y="11" width="3" height="2" rx="1" fill="#2E7D32"/>
  <!-- Diagonal Teeth -->
  <rect x="6.5" y="5.5" width="2" height="2.5" rx="0.5" fill="#2E7D32" transform="rotate(-45 7.5 6.75)"/>
  <rect x="15.5" y="5.5" width="2" height="2.5" rx="0.5" fill="#2E7D32" transform="rotate(45 16.5 6.75)"/>
  <rect x="6.5" y="16.5" width="2" height="2.5" rx="0.5" fill="#2E7D32" transform="rotate(45 7.5 17.75)"/>
  <rect x="15.5" y="16.5" width="2" height="2.5" rx="0.5" fill="#2E7D32" transform="rotate(-45 16.5 17.75)"/>
</svg>

